# xmcd
#
# Track frame offsets:
#   150
#   12732
#   25697
#   45879
#   62745
#   78643
#   90891
#   105786
#   126602
#   138153
#   160278
#   175758
#
# Disc length: 2874 seconds
#
# Revision: 0
# Processed by: cddbd v1.5.1PL0 Copyright (c) Steve Scherf et al.
# Submitted via: CD-Datenbank 4.*
#
DISCID=8b0b380c
DTITLE=John Mayall - Blues From Laurel Canyon
DYEAR=1968
DGENRE=Blues
TTITLE0=Vacation
TTITLE1=Walking On Sunset
TTITLE2=Laurel Canyon Home
TTITLE3=2401
TTITLE4=Ready To Ride
TTITLE5=Medicine Man
TTITLE6=Somebody Is Acting Like A Child
TTITLE7=The Bear
TTITLE8=Miss James
TTITLE9=First Time Alone
TTITLE10=Long Gone Midnight
TTITLE11=Fly Tomorrow
EXTD=
EXTT0=
EXTT1=
EXTT2=
EXTT3=
EXTT4=
EXTT5=
EXTT6=
EXTT7=
EXTT8=
EXTT9=
EXTT10=
EXTT11=
PLAYORDER=
